<svg width="1200" height="760" viewBox="0 0 1200 760" fill="none" xmlns="http://www.w3.org/2000/svg">
  <defs>
    <linearGradient id="mica" x1="80" y1="80" x2="1120" y2="700" gradientUnits="userSpaceOnUse">
      <stop stop-color="#F7FBFF"/>
      <stop offset="0.55" stop-color="#EEF5F7"/>
      <stop offset="1" stop-color="#FAF7F0"/>
    </linearGradient>
    <filter id="shadow" x="20" y="20" width="1160" height="720" filterUnits="userSpaceOnUse" color-interpolation-filters="sRGB">
      <feDropShadow dx="0" dy="24" stdDeviation="30" flood-color="#172032" flood-opacity="0.22"/>
    </filter>
  </defs>

  <rect width="1200" height="760" fill="#F4F7FA"/>
  <rect x="70" y="54" width="1060" height="652" rx="18" fill="url(#mica)" filter="url(#shadow)"/>

  <rect x="70" y="54" width="1060" height="58" rx="18" fill="#EFF8FC"/>
  <rect x="70" y="96" width="1060" height="16" fill="#EFF8FC"/>
  <text x="116" y="90" font-family="Segoe UI, Arial, sans-serif" font-size="18" font-weight="600" fill="#172032">Openza Flow</text>
  <text x="246" y="90" font-family="Segoe UI, Arial, sans-serif" font-size="14" fill="#587084">Review Requests</text>

  <line x1="1018" y1="77" x2="1042" y2="77" stroke="#172032" stroke-width="2" stroke-linecap="round"/>
  <rect x="1064" y="67" width="20" height="20" rx="2" stroke="#172032" stroke-width="2"/>
  <path d="M1108 68L1126 86M1126 68L1108 86" stroke="#172032" stroke-width="2.4" stroke-linecap="round"/>

  <rect x="94" y="138" width="236" height="540" rx="12" fill="#FFFFFF" fill-opacity="0.72"/>
  <rect x="114" y="158" width="196" height="42" rx="8" fill="#DFF1F8"/>
  <circle cx="136" cy="179" r="8" fill="#172032"/>
  <text x="154" y="185" font-family="Segoe UI, Arial, sans-serif" font-size="15" font-weight="600" fill="#172032">Review Requests</text>

  <circle cx="136" cy="236" r="8" fill="#64748B"/>
  <text x="154" y="242" font-family="Segoe UI, Arial, sans-serif" font-size="15" fill="#344256">Created</text>
  <circle cx="136" cy="292" r="8" fill="#64748B"/>
  <text x="154" y="298" font-family="Segoe UI, Arial, sans-serif" font-size="15" fill="#344256">Recently Reviewed</text>
  <circle cx="136" cy="348" r="8" fill="#64748B"/>
  <text x="154" y="354" font-family="Segoe UI, Arial, sans-serif" font-size="15" fill="#344256">Settings</text>

  <rect x="114" y="596" width="196" height="48" rx="8" fill="#F4F8FA"/>
  <circle cx="140" cy="620" r="13" fill="#52647A"/>
  <text x="164" y="617" font-family="Segoe UI, Arial, sans-serif" font-size="13" font-weight="600" fill="#172032">solankydev</text>
  <text x="164" y="635" font-family="Segoe UI, Arial, sans-serif" font-size="12" fill="#64748B">Signed in with GitHub</text>

  <text x="370" y="166" font-family="Segoe UI, Arial, sans-serif" font-size="28" font-weight="700" fill="#172032">Review Requests</text>
  <text x="370" y="196" font-family="Segoe UI, Arial, sans-serif" font-size="15" fill="#64748B">Pull requests waiting for your attention</text>

  <rect x="370" y="222" width="414" height="42" rx="8" fill="#FFFFFF" stroke="#D7E1E8"/>
  <circle cx="394" cy="243" r="8" stroke="#64748B" stroke-width="2"/>
  <line x1="400" y1="249" x2="407" y2="256" stroke="#64748B" stroke-width="2" stroke-linecap="round"/>
  <text x="420" y="249" font-family="Segoe UI, Arial, sans-serif" font-size="14" fill="#64748B">Search pull requests</text>

  <rect x="804" y="222" width="144" height="42" rx="8" fill="#FFFFFF" stroke="#D7E1E8"/>
  <text x="826" y="249" font-family="Segoe UI, Arial, sans-serif" font-size="14" fill="#172032">All organizations</text>
  <path d="M925 238L933 246L941 238" stroke="#64748B" stroke-width="2" fill="none" stroke-linecap="round"/>

  <rect x="966" y="222" width="42" height="42" rx="8" fill="#FFFFFF" stroke="#D7E1E8"/>
  <path d="M987 234V243H996M996 243C996 250 991 255 984 255C977 255 972 250 972 243C972 236 977 231 984 231C988 231 992 233 994 236" stroke="#172032" stroke-width="2" fill="none" stroke-linecap="round" stroke-linejoin="round"/>

  <rect x="370" y="292" width="700" height="92" rx="12" fill="#FFFFFF" stroke="#D7E1E8"/>
  <rect x="390" y="313" width="52" height="52" rx="10" fill="#E6F4EA"/>
  <text x="416" y="346" text-anchor="middle" font-family="Segoe UI, Arial, sans-serif" font-size="16" font-weight="700" fill="#1F7A3D">PR</text>
  <text x="462" y="326" font-family="Segoe UI, Arial, sans-serif" font-size="17" font-weight="700" fill="#172032">Improve review request filtering</text>
  <text x="462" y="350" font-family="Segoe UI, Arial, sans-serif" font-size="13" fill="#64748B">openza/flow #82 by contributor</text>
  <rect x="462" y="360" width="74" height="20" rx="10" fill="#E6F4EA"/>
  <text x="499" y="375" text-anchor="middle" font-family="Segoe UI, Arial, sans-serif" font-size="12" fill="#1F7A3D">feature</text>
  <text x="1010" y="345" text-anchor="end" font-family="Segoe UI, Arial, sans-serif" font-size="13" fill="#64748B">12 min ago</text>

  <rect x="370" y="404" width="700" height="92" rx="12" fill="#FFFFFF" stroke="#D7E1E8"/>
  <rect x="390" y="425" width="52" height="52" rx="10" fill="#FFF2DF"/>
  <text x="416" y="458" text-anchor="middle" font-family="Segoe UI, Arial, sans-serif" font-size="16" font-weight="700" fill="#A15C00">PR</text>
  <text x="462" y="438" font-family="Segoe UI, Arial, sans-serif" font-size="17" font-weight="700" fill="#172032">Fix tray refresh notification state</text>
  <text x="462" y="462" font-family="Segoe UI, Arial, sans-serif" font-size="13" fill="#64748B">openza/reader #64 by maintainer</text>
  <rect x="462" y="472" width="45" height="20" rx="10" fill="#FFE5E5"/>
  <text x="484" y="487" text-anchor="middle" font-family="Segoe UI, Arial, sans-serif" font-size="12" fill="#B42318">bug</text>
  <text x="1010" y="457" text-anchor="end" font-family="Segoe UI, Arial, sans-serif" font-size="13" fill="#64748B">1 hour ago</text>

  <rect x="370" y="516" width="700" height="92" rx="12" fill="#FFFFFF" stroke="#D7E1E8"/>
  <rect x="390" y="537" width="52" height="52" rx="10" fill="#EAF0FF"/>
  <text x="416" y="570" text-anchor="middle" font-family="Segoe UI, Arial, sans-serif" font-size="16" font-weight="700" fill="#2454C6">PR</text>
  <text x="462" y="550" font-family="Segoe UI, Arial, sans-serif" font-size="17" font-weight="700" fill="#172032">Update Microsoft Store packaging notes</text>
  <text x="462" y="574" font-family="Segoe UI, Arial, sans-serif" font-size="13" fill="#64748B">openza/flow #79 by solankydev</text>
  <rect x="462" y="584" width="52" height="20" rx="10" fill="#EAF0FF"/>
  <text x="488" y="599" text-anchor="middle" font-family="Segoe UI, Arial, sans-serif" font-size="12" fill="#2454C6">docs</text>
  <text x="1010" y="569" text-anchor="end" font-family="Segoe UI, Arial, sans-serif" font-size="13" fill="#64748B">today</text>
</svg>
